<svg xmlns="http://www.w3.org/2000/svg" width="752" height="80">
  <svg width="32" height="32" viewBox="0 0 32 32">
    <path fill="#212121" d="M31.97 9.4a11.7 11.7 0 0 0-.74-3.87 7.8 7.8 0 0 0-1.86-2.84A7.87 7.87 0 0 0 26.54.84C25.52.45 24.36.17 22.66.1 20.95.02 20.4 0 16.06 0s-4.89.02-6.6.1C7.76.16 6.6.43 5.58.83a7.8 7.8 0 0 0-2.84 1.85A7.87 7.87 0 0 0 .9 5.52C.5 6.54.23 7.7.16 9.4c-.08 1.71-.1 2.26-.1 6.6s.02 4.9.09 6.6c.08 1.7.35 2.87.74 3.88a7.9 7.9 0 0 0 1.85 2.84c.8.81 1.77 1.44 2.84 1.84 1.02.4 2.18.67 3.88.75 1.7.07 2.25.09 6.6.09s4.88-.02 6.59-.1a11.7 11.7 0 0 0 3.88-.74 8.18 8.18 0 0 0 4.68-4.68c.4-1.02.67-2.18.75-3.88.07-1.7.09-2.25.09-6.6s0-4.89-.08-6.6zm-2.88 13.07a8.76 8.76 0 0 1-.55 2.97 5.31 5.31 0 0 1-3.04 3.04c-.56.22-1.41.48-2.97.55-1.69.07-2.2.1-6.46.1s-4.79-.02-6.47-.1a8.76 8.76 0 0 1-2.97-.55 4.93 4.93 0 0 1-1.84-1.2 4.97 4.97 0 0 1-1.19-1.83 8.81 8.81 0 0 1-.55-2.97c-.07-1.69-.1-2.2-.1-6.47s.03-4.78.1-6.46c.07-1.56.33-2.4.55-2.97.26-.7.66-1.32 1.2-1.84a4.97 4.97 0 0 1 1.84-1.19A8.81 8.81 0 0 1 9.6 3c1.69-.07 2.2-.1 6.46-.1 4.28 0 4.78.03 6.47.1 1.56.07 2.4.33 2.96.55.7.26 1.33.66 1.84 1.2.53.51.94 1.14 1.2 1.83.22.57.48 1.42.55 2.97.07 1.69.1 2.2.1 6.46s-.03 4.77-.1 6.46z"/>
    <path fill="#212121" d="M16.06 7.78a8.22 8.22 0 1 0 0 16.45 8.22 8.22 0 0 0 0-16.45zm0 13.55a5.33 5.33 0 1 1 0-10.66 5.33 5.33 0 0 1 0 10.67zM26.52 7.46a1.92 1.92 0 1 1-3.83 0 1.92 1.92 0 0 1 3.83 0z"/>
  </svg>
  <svg width="32" height="32" viewBox="0 0 32 32" x="48">
    <path fill="#212121" d="M32 6.08c-1.19.52-2.46.87-3.78 1.03a6.52 6.52 0 0 0 2.89-3.62 13.11 13.11 0 0 1-4.16 1.59 6.57 6.57 0 0 0-11.2 5.98A18.57 18.57 0 0 1 2.23 4.2a6.57 6.57 0 0 0 2.02 8.77 6.48 6.48 0 0 1-2.97-.81v.07a6.59 6.59 0 0 0 5.26 6.44 6.55 6.55 0 0 1-2.97.1 6.62 6.62 0 0 0 6.13 4.58 13.18 13.18 0 0 1-9.7 2.7A18.47 18.47 0 0 0 10.06 29c12.08 0 18.68-10 18.68-18.67 0-.29-.01-.57-.03-.85 1.3-.92 2.4-2.07 3.29-3.4z"/>
  </svg>
  <svg width="32" height="32" viewBox="0 0 32 32" x="96">
    <path fill="#212121" d="M21.33 5.31h2.92V.23C23.75.15 22.01 0 19.99 0c-4.2 0-7.1 2.65-7.1 7.52V12H8.26v5.69h4.65V32h5.7V17.69h4.46l.7-5.69H18.6V8.08c0-1.64.45-2.77 2.74-2.77z"/>
  </svg>
  <svg width="32" height="32" viewBox="0 0 32 32" x="144">
    <path fill="#212121" d="M32 32V20.26c0-5.74-1.24-10.16-7.95-10.16-3.23 0-5.39 1.77-6.27 3.45h-.1v-2.92h-6.36V32h6.63V21.42c0-2.79.52-5.48 3.97-5.48 3.4 0 3.45 3.18 3.45 5.66V32H32zM.53 10.64h6.63V32H.53V10.64zM3.84 0C1.72 0 0 1.72 0 3.84s1.72 3.88 3.84 3.88A3.88 3.88 0 0 0 7.7 3.84 3.85 3.85 0 0 0 3.84 0z"/>
  </svg>
  <svg width="43" height="32" viewBox="0 0 43 32" x="192">
    <path fill="#212121" d="M38.67 0H4a4 4 0 0 0-4 4v24a4 4 0 0 0 4 4h34.67a4 4 0 0 0 4-4V4a4 4 0 0 0-4-4zm0 2.67c.18 0 .35.03.5.1L21.34 18.24 3.5 2.77c.16-.07.33-.1.51-.1h34.67zm0 26.66H4c-.74 0-1.33-.6-1.33-1.33V5.59L20.46 21a1.33 1.33 0 0 0 1.75 0L40 5.59V28c0 .74-.6 1.33-1.34 1.33z"/>
  </svg>
  <svg width="20" height="32" viewBox="0 0 20 32" x="288">
    <path fill="#212121" d="M17 0H3a3 3 0 0 0-3 3v26a3 3 0 0 0 3 3h14a3 3 0 0 0 3-3V3a3 3 0 0 0-3-3zM3 2h14a1 1 0 0 1 1 1v21H2V3a1 1 0 0 1 1-1zm14 28H3a1 1 0 0 1-1-1v-3h16v3a1 1 0 0 1-1 1z"/>
    <path fill="#212121" d="M4.7 27.48c.4.36.4.95 0 1.32s-1.02.36-1.4 0c-.4-.37-.4-.96 0-1.32s1.02-.37 1.4 0z"/>
  </svg>
  <svg width="32" height="32" viewBox="0 0 32 32" x="336">
    <path fill="#212121" d="m6.38.5 4.65 4.4H2.39v21.36h22.57V18.1l4.65 4.4V.5H6.38zm18.38 17.08L11.56 5.09h13.2v12.49zm-4.1 5.56H5.96V8.77H7v13.4h13.66v.97zM9.44 29.1l-.55 1.12-.54-1.12h-.46l.8 1.49v.87h.4v-.87l.8-1.5h-.45zm.68 2.36.19-.55h.91l.2.55h.42l-.89-2.36h-.37l-.89 2.36h.43zm.65-1.86.34.98h-.69l.35-.98zm2.16.92c-.06.1-.1.2-.1.3 0 .2.08.36.22.49.14.12.32.18.56.18s.43-.06.6-.19l.13.16h.46l-.35-.41c.14-.19.2-.43.2-.72h-.33c0 .16-.04.3-.1.44l-.46-.54.16-.12c.11-.08.2-.16.25-.25s.07-.17.07-.27a.49.49 0 0 0-.16-.37.6.6 0 0 0-.42-.15.63.63 0 0 0-.46.16.58.58 0 0 0-.17.44c0 .07.02.15.06.23.03.08.1.18.19.3-.18.12-.3.23-.35.32zm1.06.52a.6.6 0 0 1-.37.14c-.12 0-.21-.04-.28-.1s-.1-.16-.1-.27c0-.13.06-.24.19-.34l.05-.04.51.61zm-.42-1.04c-.11-.14-.17-.25-.17-.35 0-.07.03-.14.07-.2s.1-.07.18-.07c.07 0 .13.02.18.07.05.04.07.1.07.15a.3.3 0 0 1-.1.23l-.05.04-.18.13zm3.84 1.28a.86.86 0 0 0 .28-.6h-.41c-.02.18-.07.3-.15.37s-.2.1-.37.1a.46.46 0 0 1-.4-.2c-.09-.13-.14-.32-.14-.57v-.21c0-.26.06-.45.15-.58.1-.13.23-.2.41-.2.16 0 .27.05.35.12.08.08.13.2.15.37h.4c-.02-.26-.11-.46-.27-.6s-.37-.21-.63-.21c-.2 0-.36.04-.51.13-.15.1-.26.23-.34.4s-.12.36-.12.58v.22c0 .22.05.41.12.58s.2.29.33.38c.15.09.31.13.5.13.27 0 .49-.07.65-.21zm2.4-.33c.09-.18.13-.38.13-.61v-.13c0-.23-.04-.43-.12-.6a.9.9 0 0 0-.86-.54c-.2 0-.36.04-.51.14a.92.92 0 0 0-.35.4c-.08.18-.12.38-.12.61v.13c0 .23.04.43.12.6.09.17.2.3.35.4.15.1.32.14.51.14.2 0 .37-.05.52-.14.15-.1.26-.23.34-.4zm-.43-1.34c.1.14.15.34.15.6v.13c0 .26-.05.47-.15.6-.1.14-.24.21-.42.21a.49.49 0 0 1-.42-.21c-.1-.14-.15-.34-.15-.6v-.14c0-.25.05-.45.15-.58.1-.14.24-.21.42-.21s.32.07.42.2z"/>
  </svg>
  <svg width="32" height="32" viewBox="0 0 32 32" x="384">
    <path fill="#212121" d="M14.24 3.9h-.08l-.33-.01h-.23a12.2 12.2 0 0 0-.68.01C11 4.01 9.13 4.5 7.4 5.31l-.23.11v11.62l.53-.18a18 18 0 0 1 5.72-1v1.52c-.18 0-.37 0-.55.02h-.05a16.94 16.94 0 0 0-7.16 2.01V4.51a15.6 15.6 0 0 1 4.09-1.65c1.25-.33 2.55-.5 3.84-.5h.23a11.12 11.12 0 0 1 2.7.34v1.5c-.62-.14-1.24-.23-1.87-.28h-.03a4.6 4.6 0 0 0-.38-.02zm2.64 1.54a16.49 16.49 0 0 0 5.07-.48 16.7 16.7 0 0 0 3.9-1.52v14.63c-1.28.74-2.66 1.3-4.1 1.66-1.25.32-2.54.49-3.84.5-.98 0-1.96-.11-2.92-.35V5.15a12.16 12.16 0 0 0 1.89.29zm7.45.1-.53.19c-.5.16-.99.3-1.48.44a18.02 18.02 0 0 1-5.38.54l-.43-.03v11.95l.37.03a14.09 14.09 0 0 0 4.5-.4c.94-.24 1.85-.57 2.72-.98l.23-.11V5.55zM6.7 24.5a.78.78 0 0 0-.6-.23.86.86 0 0 0-.6.24.87.87 0 0 0-.23.6v1.98c-.01.14.02.28.07.41a.7.7 0 0 0 .47.4c.1.03.2.05.3.05a.84.84 0 0 0 .82-.84v-.22h-.51v.18c0 .06-.01.12-.04.17a.32.32 0 0 1-.07.12.37.37 0 0 1-.22.08.31.31 0 0 1-.24-.1.47.47 0 0 1-.07-.28V25.2c0-.1.02-.2.06-.3a.26.26 0 0 1 .26-.12.28.28 0 0 1 .23.12c.06.07.09.17.08.26v.18h.52v-.2a.94.94 0 0 0-.24-.64zM9.79 24.48a.9.9 0 0 0-1.18 0 .82.82 0 0 0-.2.28.95.95 0 0 0-.08.39v1.9c0 .14.02.27.07.4.05.1.12.2.2.26a.9.9 0 0 0 1.18 0 .8.8 0 0 0 .2-.26.94.94 0 0 0 .08-.4v-1.9a.87.87 0 0 0-.27-.66zm-.25 2.58a.35.35 0 0 1-.1.27.38.38 0 0 1-.5 0c-.03-.03-.06-.08-.07-.12s-.03-.1-.03-.15v-1.91a.35.35 0 0 1 .1-.28.38.38 0 0 1 .5 0l.08.13c.02.05.03.1.02.15v1.9zM13.84 27.9v-3.6h-.5l-.65 1.9h-.01l-.66-1.9h-.5v3.6h.52v-2.19l.51 1.55h.26l.5-1.55h.02v2.2h.51zM16.78 24.55a.72.72 0 0 0-.3-.2 1.16 1.16 0 0 0-.37-.06h-.77v3.62h.52V26.5h.26c.17 0 .33-.03.47-.1a.85.85 0 0 0 .4-.6 2.57 2.57 0 0 0-.02-.92.77.77 0 0 0-.2-.33zm-.27 1.1c0 .07-.02.13-.05.19a.29.29 0 0 1-.13.12.52.52 0 0 1-.24.05h-.24v-1.23h.27a.5.5 0 0 1 .23.05c.05.03.1.07.12.13.03.06.05.13.05.2v.49zM19.22 24.3h-.43l-.8 3.6h.52l.15-.77h.7l.16.78h.51l-.81-3.62zm-.48 2.34.25-1.31H19l.26 1.31h-.52zM22.54 26.47l-.78-2.18h-.5v3.62h.52v-2.17l.8 2.17h.48v-3.62h-.52v2.18zM25.69 24.3l-.41 1.43h-.02l-.4-1.44h-.55l.7 2.09v1.53h.52v-1.53l.7-2.09h-.54zM5.26 28.93h.25v.7h.16v-.7h.25v-.14h-.66v.14zM7.34 28.79l-.32.84h.18l.07-.2h.33l.07.2h.19l-.34-.84h-.18zm-.02.5.11-.3.12.3h-.23zM9.4 29.32h.2v.1a.33.33 0 0 1-.2.07.21.21 0 0 1-.18-.08.35.35 0 0 1-.06-.21c0-.2.08-.28.24-.28.05 0 .09 0 .12.03s.06.06.07.1l.17-.03c-.04-.17-.15-.25-.36-.25-.1 0-.21.03-.29.1a.42.42 0 0 0-.12.33c0 .12.03.23.1.32a.4.4 0 0 0 .33.12.5.5 0 0 0 .35-.14v-.33h-.36v.14zM11.51 28.79h-.17v.84h.6v-.15h-.43v-.7zM13.3 28.79h-.18v.84h.17v-.84zM15.04 29.35l-.35-.56h-.16v.84h.15v-.55l.34.54h.17v-.83h-.15v.56zM16.6 29.25h.43v-.14h-.42v-.18h.45v-.15h-.62v.84h.64v-.14h-.47v-.23zM20.43 29.12h-.33v-.33h-.17v.84h.17v-.37h.33v.36h.16v-.83h-.16v.33zM22 29.25h.43v-.14H22v-.18h.45v-.15h-.62v.84h.63v-.14h-.46v-.23zM24.16 29.25c.14-.02.22-.1.22-.23a.2.2 0 0 0-.09-.19.47.47 0 0 0-.24-.04h-.36v.83h.17v-.35h.03c.04 0 .08 0 .1.02l.07.06.18.27h.2l-.1-.16a.58.58 0 0 0-.18-.2zm-.17-.11h-.13v-.21H24c.06 0 .12 0 .18.02l.02.04.01.05-.01.04-.03.04a.47.47 0 0 1-.17.02zM25.77 29.25h.42v-.14h-.42v-.18h.46v-.15h-.63v.84h.64v-.14h-.46v-.23z"/>
  </svg>
  <svg width="32" height="32" viewBox="0 0 32 32" x="432">
    <path fill="#212121" d="M8 26.57h.02l.02.01.12.12a.95.95 0 0 1-.33.2c-.15.06-.3.09-.46.08-.15 0-.3-.02-.44-.07a.94.94 0 0 1-.33-.2.88.88 0 0 1-.2-.3 1.02 1.02 0 0 1-.08-.4.91.91 0 0 1 .3-.7c.1-.1.22-.16.35-.2a1.39 1.39 0 0 1 .87-.02c.11.05.22.1.31.18l-.1.12-.02.02a.06.06 0 0 1-.04.01l-.04-.01-.06-.03-.07-.04a.82.82 0 0 0-.23-.08 1.11 1.11 0 0 0-.5.04.68.68 0 0 0-.42.39c-.03.1-.05.2-.05.31 0 .11.02.22.06.32a.69.69 0 0 0 .4.39c.1.03.2.05.3.05l.18-.01a.69.69 0 0 0 .38-.17.09.09 0 0 1 .06-.02zM11.36 26c0 .14-.03.27-.08.4-.05.11-.12.22-.22.3s-.22.16-.35.2c-.28.1-.6.1-.88 0a1.03 1.03 0 0 1-.34-.2.9.9 0 0 1-.22-.3c-.1-.26-.1-.54 0-.8a.94.94 0 0 1 .22-.3c.1-.08.21-.15.34-.2.28-.09.6-.09.88 0 .13.05.25.12.35.2a.91.91 0 0 1 .3.7zm-.3 0c0-.1-.02-.2-.06-.3a.65.65 0 0 0-.4-.4c-.21-.06-.44-.06-.65 0a.68.68 0 0 0-.24.16.63.63 0 0 0-.16.23.93.93 0 0 0 0 .63.64.64 0 0 0 .4.39c.2.06.44.06.64 0 .1-.04.18-.09.25-.15a.66.66 0 0 0 .16-.24c.04-.1.05-.2.05-.31zM13.65 26.34l.03.07.03-.07a.68.68 0 0 1 .04-.07l.74-1.18c.02-.02.03-.03.05-.03a.2.2 0 0 1 .06 0h.22v1.9h-.26v-1.53l-.75 1.2-.04.03-.07.02h-.04c-.02 0-.04 0-.06-.02l-.05-.04-.77-1.2V26.95h-.25v-1.9h.22a.2.2 0 0 1 .06 0l.04.04.76 1.18.04.07zM16.45 26.24v.72h-.3v-1.9h.65c.13-.01.25 0 .37.03.09.03.18.07.25.12a.5.5 0 0 1 .15.19c.03.08.05.16.04.24a.55.55 0 0 1-.2.44.75.75 0 0 1-.26.13c-.12.03-.24.04-.35.04h-.36zm0-.2h.35a.8.8 0 0 0 .22-.03.51.51 0 0 0 .17-.08.36.36 0 0 0 .13-.29c0-.05 0-.1-.03-.15s-.06-.1-.1-.13a.62.62 0 0 0-.4-.1h-.34v.78zM20.35 26.96h-.23a.1.1 0 0 1-.06-.02.13.13 0 0 1-.04-.04l-.2-.46h-.99l-.2.46a.1.1 0 0 1-.1.06h-.24l.88-1.9h.3l.88 1.9zm-1.44-.7h.82l-.34-.79a1.28 1.28 0 0 1-.07-.17l-.03.1a.98.98 0 0 1-.03.08l-.35.77zM21.61 25.06c.02 0 .03.02.04.04l1.28 1.43v-1.48h.26v1.91h-.15l-.06-.01a.16.16 0 0 1-.05-.04l-1.27-1.43v1.48h-.26v-1.9H21.61zM25.33 26.2v.76h-.3v-.76l-.8-1.15h.26c.03 0 .05 0 .07.02l.04.04.5.74a1.32 1.32 0 0 1 .09.17l.04-.08a.74.74 0 0 1 .05-.09l.5-.74a.18.18 0 0 1 .03-.04.1.1 0 0 1 .06-.02h.26l-.8 1.15zM13.5 21.85l.39.03c1.96-.76 3.62-2 4.77-3.58s1.74-3.42 1.7-5.29l-2.17-1.88c.44 2 .24 4.05-.59 5.94s-2.25 3.55-4.1 4.78z"/>
    <path fill="#212121" d="m12.73 21.76.06.01c1.98-1.23 3.48-2.94 4.32-4.92s.99-4.13.4-6.18l-3.08-2.68c1.25 2.2 1.75 4.66 1.45 7.1s-1.4 4.75-3.15 6.67zM23.18 15.22a9.62 9.62 0 0 1-3.63 5.27c-.53.4-1.1.77-1.72 1.08 1.5-.38 2.86-1.05 4-1.97s2.03-2.04 2.6-3.3l-1.25-1.08z"/>
    <path fill="#212121" d="m22.69 14.92-1.78-1.55c-.03 1.76-.61 3.49-1.67 4.99s-2.56 2.73-4.35 3.56c.4 0 .8-.02 1.2-.07 1.67-.59 3.15-1.53 4.3-2.74s1.94-2.65 2.3-4.2zM12.99 6.86l-2.12-1.84c-1.9.64-3.53 1.75-4.68 3.21s-1.77 3.18-1.78 4.95c0 1.95.76 3.84 2.15 5.38s3.32 2.63 5.5 3.1c1.95-2.06 3.08-4.6 3.25-7.27S14.67 9.1 13 6.86zM27.59 14.63c0-2.31-1.07-4.53-2.96-6.17s-4.43-2.56-7.1-2.57c-1.23 0-2.45.2-3.6.58l12.99 11.3c.44-1 .67-2.07.67-3.14z"/>
  </svg>
  <svg width="33" height="32" viewBox="0 0 33 32" x="480">
    <path fill="#212121" d="M6.5 12.37c-1.1 0-2 .79-2 1.77s.9 1.77 2 1.77 2-.8 2-1.77c0-.98-.9-1.77-2-1.77zM21.23 11.8c0-1.36-.61-2.67-1.7-3.63s-2.54-1.5-4.07-1.5c-1.53 0-3 .54-4.08 1.5s-1.7 2.27-1.7 3.63v7.5s11.55-1.14 11.55-7.5zM.46 21.76c0 .95.43 1.85 1.18 2.52s1.78 1.05 2.84 1.05c1.07 0 2.09-.38 2.84-1.05s1.18-1.57 1.18-2.52v-5.22s-8.04.8-8.04 5.22zm4.02.94c-.2 0-.41-.06-.58-.16s-.31-.25-.4-.42c-.07-.17-.1-.36-.05-.54s.14-.35.29-.48.33-.22.54-.26c.2-.03.41-.01.6.06s.36.19.48.34.17.33.17.52c0 .12-.02.24-.08.36a.98.98 0 0 1-.57.5c-.12.06-.26.08-.4.08zM12.6 22.18h-.77v.8h-.4v-1.96h1.27v.33h-.87v.5h.77v.33zm1.94-.13c0 .19-.03.36-.1.5s-.16.26-.3.34a.8.8 0 0 1-.43.12c-.16 0-.3-.04-.43-.12s-.23-.19-.3-.33c-.07-.15-.1-.31-.1-.5v-.1c0-.2.03-.36.1-.5s.17-.27.3-.35c.12-.08.27-.12.43-.12s.3.04.44.12c.12.08.22.2.3.34.06.15.1.32.1.5v.1zm-.4-.1c0-.2-.04-.35-.12-.46s-.17-.16-.31-.16c-.14 0-.24.05-.31.16s-.11.26-.12.46v.1c0 .2.04.35.11.46s.18.17.32.17.24-.05.31-.16.11-.26.11-.46v-.1zm1.71.52c0-.08-.02-.14-.08-.18s-.15-.08-.29-.13c-.14-.04-.25-.09-.33-.13-.22-.12-.34-.28-.34-.49 0-.1.03-.2.1-.28s.14-.15.25-.2c.11-.04.24-.07.38-.07s.26.03.37.08a.58.58 0 0 1 .35.53h-.4c0-.09-.03-.16-.1-.2s-.13-.08-.23-.08-.17.02-.23.06-.08.1-.08.16c0 .07.03.12.1.16s.15.09.28.12c.23.07.4.16.5.26s.16.23.16.38c0 .17-.07.3-.2.4s-.3.15-.51.15c-.15 0-.3-.03-.42-.08s-.21-.14-.28-.23a.58.58 0 0 1-.1-.34h.4c0 .22.14.33.4.33.1 0 .17-.02.22-.06s.08-.1.08-.16zm2.16-1.12h-.6v1.63H17v-1.63h-.6v-.33h1.6v.33zm1.41.78h-.78v.53h.92v.32h-1.32v-1.96h1.31v.33h-.9v.47h.77v.31zm1.1.14h-.33v.71h-.4v-1.96h.73c.23 0 .4.06.54.16s.18.25.18.44c0 .13-.03.24-.08.33s-.15.16-.27.21l.43.8v.02h-.43l-.37-.71zm-.32-.33h.32c.1 0 .18-.03.24-.08a.28.28 0 0 0 .08-.21c0-.1-.03-.17-.08-.22s-.13-.08-.24-.08h-.32v.59zm2.44.35v.7h-.4v-1.97H23c.15 0 .28.03.4.08s.19.13.25.23.09.21.09.34c0 .2-.07.34-.2.46s-.31.16-.54.16h-.36zm0-.33H23c.11 0 .2-.02.25-.07s.08-.12.08-.22-.03-.17-.08-.23-.14-.09-.24-.1h-.37v.62zm2.56.17h-.78v.53h.91v.32h-1.31v-1.96h1.3v.33h-.9v.47h.78v.31zm1.87-.78h-.6v1.63h-.4v-1.63h-.6v-.33h1.6v.33zm1.41.78h-.77v.53h.9v.32h-1.3v-1.96h1.3v.33h-.9v.47h.77v.31zm1.1.14h-.32v.71h-.4v-1.96h.72c.23 0 .41.06.54.16s.19.25.19.44c0 .13-.03.24-.1.33s-.14.16-.25.21l.42.8v.02h-.43l-.37-.71zm-.32-.33h.32c.1 0 .18-.03.24-.08a.28.28 0 0 0 .08-.21c0-.1-.02-.17-.08-.22s-.13-.08-.24-.08h-.32v.59zm2.37.53c0-.08-.03-.14-.08-.18s-.15-.08-.3-.13c-.13-.04-.24-.09-.32-.13-.23-.12-.34-.28-.34-.49 0-.1.03-.2.1-.28s.14-.15.25-.2c.11-.04.24-.07.38-.07s.26.03.37.08c.1.05.2.12.25.22s.1.2.1.31h-.4c0-.09-.04-.16-.1-.2s-.13-.08-.23-.08-.18.02-.23.06-.08.1-.08.16c0 .07.03.12.1.16s.15.09.28.12c.23.07.4.16.5.26s.16.23.16.38c0 .17-.07.3-.2.4s-.3.15-.51.15c-.16 0-.3-.03-.42-.08s-.21-.14-.28-.23a.58.58 0 0 1-.1-.34h.4c0 .22.14.33.4.33.1 0 .17-.02.22-.06s.08-.1.08-.16z"/>
  </svg>
  <svg width="35" height="32" viewBox="0 0 35 32" x="528">
    <path fill="#212121" d="M3.11 24.13c.13.15.2.34.2.53 0 .12-.02.24-.07.36s-.14.21-.24.3a1.4 1.4 0 0 1-.88.23H.57v-3.3H2.1c.3-.02.6.06.84.22a.73.73 0 0 1 .3.62c0 .18-.06.36-.18.5a.84.84 0 0 1-.46.26c.2.04.39.14.52.28zm-1.82-.5h.65c.15.02.3-.02.41-.1a.4.4 0 0 0 .14-.32c0-.07 0-.13-.03-.18s-.06-.1-.1-.15a.67.67 0 0 0-.43-.1h-.64v.86zm1.13 1.27c.05-.04.09-.1.12-.15s.03-.12.03-.18c0-.07 0-.13-.03-.19s-.07-.11-.13-.15a.71.71 0 0 0-.44-.12H1.3v.9H2c.15.02.3-.02.43-.1zM6.21 25.55l-.84-1.29h-.32v1.3h-.73v-3.3H5.7c.34-.03.69.07.95.27a.99.99 0 0 1 .1 1.37c-.16.18-.4.3-.65.33l.9 1.32h-.79zm-1.16-1.74h.6c.4 0 .61-.16.61-.5a.46.46 0 0 0-.15-.37.69.69 0 0 0-.47-.13h-.6v1zM10.18 24.89H8.73l-.25.66h-.76l1.32-3.26h.83l1.32 3.26h-.76l-.25-.66zm-.2-.5-.53-1.4-.52 1.4h1.05zM15.14 25.55h-.72l-1.61-2.24v2.24h-.72v-3.3h.72l1.61 2.26v-2.26h.72v3.3zM19.26 24.76a1.5 1.5 0 0 1-.66.59c-.3.14-.66.21-1 .2h-1.3v-3.3h1.3c.34 0 .69.06 1 .2.28.13.5.33.66.58a1.8 1.8 0 0 1 0 1.73zm-.83-.08c.2-.21.32-.5.32-.78s-.11-.57-.32-.8c-.25-.2-.57-.3-.9-.27h-.5v2.13h.5c.33.02.65-.08.9-.28zM10.63 3.88s9.3 3.22 9.1 7.87v7.87s-9.3-3.22-9.1-7.87V3.88zM28.02 17.78a13.5 13.5 0 0 1 5.9-2v-2.46a11.95 11.95 0 0 0-5.9 4.46z"/>
    <path fill="#212121" d="M26.96 18.52a12.32 12.32 0 0 1 6.97-5.71V5.7s-13.25 4.58-12.97 11.2v11.2s.6-.2 1.52-.58c0-.36 0-.72.04-1.09a11.35 11.35 0 0 1 4.44-7.92z"/>
    <path fill="#212121" d="M25.7 22.68c.07-.77.23-1.54.47-2.3a10.37 10.37 0 0 0-2.8 6.78c.74-.34 1.62-.75 2.54-1.23-.24-1.07-.3-2.16-.2-3.25zM26.23 22.72c-.09.99-.03 1.97.16 2.94 3.62-1.98 7.69-5.05 7.53-8.75v-.32c-2.58.26-5 1.3-6.88 2.95-.44 1.02-.71 2.09-.81 3.18z"/>
  </svg>
  <svg width="32" height="32" viewBox="0 0 32 32" x="576">
    <path fill="#212121" d="M16.18 15.55a1 1 0 0 1-.2-.68v-.98c0-.3.06-.53.2-.69s.37-.23.7-.23c.32 0 .54.06.67.2.14.17.21.37.2.58v.23h-.56v-.23c0-.08 0-.15-.02-.23 0-.05-.04-.1-.08-.13a.32.32 0 0 0-.2-.06.34.34 0 0 0-.21.06.26.26 0 0 0-.1.15l-.02.24v1.2c0 .11.02.23.07.33.03.04.07.06.11.08s.1.03.15.02a.3.3 0 0 0 .2-.05.24.24 0 0 0 .08-.15l.02-.24v-.24h.56v.22a.9.9 0 0 1-.2.62c-.13.15-.34.22-.67.22s-.56-.08-.7-.24zM18.51 15.56c-.14-.15-.21-.38-.21-.67v-1.04c0-.29.07-.51.21-.66s.38-.23.71-.22c.33 0 .56.07.7.22s.22.37.22.66v1.04c0 .29-.07.51-.22.67s-.38.23-.7.23-.57-.08-.71-.23zm.97-.25c.05-.1.08-.2.07-.3v-1.27c0-.1-.02-.2-.07-.3-.03-.04-.07-.07-.11-.08s-.1-.03-.15-.02l-.15.01c-.05.02-.08.05-.11.09-.05.1-.08.2-.07.3V15c0 .1.02.21.07.3a.36.36 0 0 0 .26.1c.05 0 .1 0 .14-.02l.12-.07v-.01zM20.81 13h.6l.46 1.9.46-1.9h.59l.06 2.75h-.43l-.05-1.91-.45 1.91h-.35l-.46-1.92-.04 1.92h-.44L20.8 13zM23.65 13h.94c.54 0 .81.26.81.78 0 .5-.28.75-.85.75h-.32v1.22h-.58V13zm.8 1.17.18-.01c.06-.01.1-.04.14-.07.07-.1.1-.2.09-.31 0-.09 0-.17-.03-.25 0-.03-.02-.06-.04-.08l-.08-.06a.6.6 0 0 0-.25-.04h-.23v.82h.23zM26.24 13h.62l.64 2.75h-.54l-.13-.63h-.55l-.13.63h-.55l.64-2.75zm.53 1.8-.22-1.16-.21 1.16h.43zM28.02 13h.4l.78 1.57V13h.48v2.75h-.38l-.79-1.64v1.64h-.5V13zM30.8 14.7l-.64-1.7h.54l.4 1.1.37-1.1H32l-.64 1.7v1.05h-.56V14.7zM17.07 16.96v.14h-.47v1.12h-.2V17.1h-.47v-.14h1.15zM18.56 18.22h-.16l-.04-.01a.06.06 0 0 1-.02-.03l-.14-.3h-.66l-.13.3-.02.03a.07.07 0 0 1-.05.01h-.15l.58-1.26h.2l.59 1.26zm-.96-.47h.54l-.23-.51a1.06 1.06 0 0 1-.04-.12l-.02.07-.02.05-.23.51zM19.56 18.1a.75.75 0 0 0 .29-.04l.07-.03v-.29h-.26l-.01-.02v-.11h.45v.49a.85.85 0 0 1-.4.13h-.16c-.1 0-.2-.01-.3-.04a.64.64 0 0 1-.38-.33.67.67 0 0 1 0-.53c.03-.08.09-.14.15-.2s.15-.1.23-.13a.98.98 0 0 1 .48-.04.81.81 0 0 1 .25.08l.1.07-.06.08-.01.02h-.07a.82.82 0 0 1-.05-.04.73.73 0 0 0-.33-.07.68.68 0 0 0-.23.03.44.44 0 0 0-.28.26.59.59 0 0 0 0 .42c.03.06.07.12.12.16.05.04.1.08.17.1.07.02.15.03.23.03zM21.4 18.08h.64v.14h-.83v-1.26h.2v1.12zM22.7 18.22h-.2v-1.26h.2v1.26zM23.43 16.96a.1.1 0 0 1 .03.02l.85.96v-.99h.17v1.27h-.14a.1.1 0 0 1-.03-.03l-.85-.95v.98h-.16v-1.26h.1a.1.1 0 0 1 .03 0zM25.94 16.96v.13h-.7v.42h.57v.14h-.57v.43h.7v.14h-.9v-1.26h.9zM5.17 9.15l8.8 2.16v7.56l-8.8-2.16V9.15zm-.56-.64v8.57l9.93 2.43v-8.57L4.6 8.51z"/>
    <path fill="#212121" d="M9.93 23.5 0 21.05v-8.57l9.93 2.43v8.57z"/>
    <path fill="#212121" d="m4.77 9.05 8.69 2.13-3.7 3.2-8.68-2.14 3.7-3.19zm-.16-.54L0 12.49l9.92 2.43 4.6-3.98-9.92-2.43zM10.49 23.01l4.05-3.5-4.05-.99v4.5z"/>
  </svg>
  <svg width="32" height="32" viewBox="0 0 32 32" x="624">
    <path fill="#212121" d="m30.77 22.1-8.44-8.5.94-4.62c.24.1.5.14.75.14h.01a2.16 2.16 0 1 0-2-1.43l-4.97.6L8.97.16A.53.53 0 0 0 8.6 0a.53.53 0 0 0-.37.16l-1.51 1.5c-.2.2-.2.55 0 .75l.81.83a14.94 14.94 0 0 0 2.52 17.66c.05.04.1.08.15.1-.04.18-.05.36-.05.55v6.18h-6.4a2.67 2.67 0 0 0-2.67 2.67v1.07c0 .3.24.53.53.53h24.54c.29 0 .53-.24.53-.53V30.4c0-1.47-1.2-2.66-2.67-2.66h-6.4v-2.75a14.85 14.85 0 0 0 10.09-1.46l.82.82a.53.53 0 0 0 .75 0l1.51-1.5c.2-.2.2-.54 0-.75zM23.28 6.23a1.07 1.07 0 1 1 .75 1.82 1.07 1.07 0 0 1-.75-1.82zm-1.26 3.5-.6 2.95-1.17-1.18 1.78-1.76zm-.6-.9-1.92 1.92L18 9.25l3.4-.41zM24 28.8c.89 0 1.6.72 1.6 1.6v.53H2.14v-.53c0-.88.71-1.6 1.6-1.6H24zm-7.46-2.13v1.06H11.2v-1.06h5.34zM11.2 25.6v-4.05c0-1.3 1.2-2.35 2.67-2.35s2.67 1.05 2.67 2.35v4.05H11.2zm6.4-1.7v-2.35c0-1.89-1.67-3.42-3.73-3.42a3.8 3.8 0 0 0-3.28 1.79A13.87 13.87 0 0 1 8.31 4.03l18.6 18.71a13.82 13.82 0 0 1-9.3 1.16zm11.3-.68L7.83 2.04l.75-.75 7.94 7.98 13.12 13.2-.76.75z"/>
    <path fill="#2196f3" d="M13.88 20.27a1.6 1.6 0 1 0-.01 3.2 1.6 1.6 0 1 0 0-3.2zm.37 1.98c-.1.1-.24.15-.38.15a.53.53 0 0 1 0-1.07.53.53 0 0 1 .37.92z"/>
  </svg>
  <svg width="32" height="32" viewBox="0 0 32 32" x="672">
    <path fill="#212121" d="M31.3 15.3a15.3 15.3 0 1 0-19.96 14.58l.18.03c.12 0 .24-.03.35-.1.13-.07.23-.2.28-.35L16 17.21a1.91 1.91 0 1 0-.84-3.63l-5.1-5.1a.64.64 0 0 0-.9.9l5.1 5.1c-.4.8-.17 1.77.53 2.31l-3.68 11.67a14.04 14.04 0 1 1 10.57-.35l-.4-1.87a.64.64 0 0 0-1.04-.34l-3.84 3.42a.64.64 0 0 0 .23 1.09l4.9 1.56a.64.64 0 0 0 .82-.74l-.4-1.84A15.26 15.26 0 0 0 31.3 15.3zM16 14.66a.64.64 0 1 1 0 1.28.64.64 0 0 1 0-1.28zm2.1 14.87 2.18-1.95.6 2.84-2.79-.9z"/>
    <path fill="#2196f3" d="M15.35 3.19v1.27a.64.64 0 1 0 1.28 0V3.19a.64.64 0 0 0-1.28 0zM3.88 14.66a.64.64 0 0 0 0 1.28h1.27a.64.64 0 1 0 0-1.28H3.88zM28.1 15.94a.64.64 0 1 0 0-1.28h-1.27a.64.64 0 0 0 0 1.28h1.28z"/>
  </svg>
  <svg width="32" height="32" viewBox="0 0 32 32" x="720">
    <path fill="#2196f3" d="M14.93 14.96h1.06v4.8h-1.06v-4.8zM19.19 17.1h1.07v2.66h-1.07V17.1zM10.66 18.7h1.07v1.06h-1.07V18.7zM7.46 18.16h1.07v1.6H7.46v-1.6z"/>
    <path fill="#212121" d="M1.6 28.3h25.59c.88 0 1.6-.73 1.6-1.6v-2.14c0-.88-.72-1.6-1.6-1.6h-.54V9.66l3.03-2.86a1.6 1.6 0 1 0-.75-.76L26.65 8.2V6.97c0-.88-.71-1.6-1.6-1.6H3.73c-.88 0-1.6.72-1.6 1.6v16H1.6c-.88 0-1.6.7-1.6 1.6v2.12c0 .89.72 1.6 1.6 1.6zM30.38 4.83a.53.53 0 1 1 0 1.06.53.53 0 0 1 0-1.06zM3.2 6.97c0-.3.24-.53.53-.53h21.32c.3 0 .54.23.54.53V9.2l-1.07 1.01V8.03c0-.29-.24-.53-.53-.53H4.79c-.29 0-.53.24-.53.53v13.33c0 .3.24.53.54.53h19.19c.3 0 .53-.23.53-.53V11.7l1.07-1.01v12.28H3.19v-16zM8 13.9a1.6 1.6 0 1 0 1.1 2.75l1.86.93c.21.1.47.06.63-.12l3.94-4.44 3.87 2.9c.21.16.5.14.69-.03l3.36-3.2v8.14H5.33V8.57h18.12v2.66l-3.77 3.57-3.9-2.93a.53.53 0 0 0-.72.08l-4 4.49-1.49-.75c.02-.06.02-.13.02-.19 0-.88-.71-1.6-1.6-1.6zm.53 1.6a.53.53 0 1 1-1.07 0 .53.53 0 0 1 1.07 0zm3.2 8.53h5.33v.53c0 .3-.24.53-.53.53h-4.27a.53.53 0 0 1-.53-.53v-.53zm-10.66.53c0-.3.24-.53.53-.53h9.06v.53c0 .88.72 1.6 1.6 1.6h4.26c.89 0 1.6-.72 1.6-1.6v-.53h9.06c.3 0 .54.24.54.53v2.13c0 .3-.24.53-.53.53H1.59a.53.53 0 0 1-.52-.53v-2.13z"/>
  </svg>
  <svg width="32" height="32" viewBox="0 0 32 32" y="48">
    <path fill="#2196f3" d="M31.97 4.52a.53.53 0 0 0-.43-.36l-1.9-.28-.86-1.73c-.18-.36-.78-.36-.96 0l-.85 1.73-1.91.28a.54.54 0 0 0-.3.91l1.38 1.35-.32 1.9c-.04.2.05.4.21.52.17.12.38.14.56.04l1.71-.9 1.71.9a.54.54 0 0 0 .78-.56l-.33-1.9 1.38-1.35c.15-.14.2-.35.14-.55zm-2.46 1.33a.53.53 0 0 0-.15.47l.19 1.12-1-.53a.53.53 0 0 0-.5 0l-1 .53.2-1.12a.53.53 0 0 0-.16-.47l-.81-.79 1.12-.16a.53.53 0 0 0 .4-.3l.5-1 .5 1c.08.16.23.27.4.3l1.12.16-.8.8zM26.13 20.52h-1.06v1.07h1.06v-1.07zM26.13 22.66h-1.06v1.06h1.06v-1.06zM27.2 21.59h-1.07v1.07h1.07v-1.07zM25.07 21.59H24v1.07h1.07v-1.07zM22.4 26.39h-1.07v1.07h1.07v-1.07zM22.4 28.52h-1.07v1.07h1.07v-1.07zM23.47 27.46H22.4v1.06h1.07v-1.06zM21.33 27.46h-1.06v1.06h1.06v-1.06zM16 24.26h-1.07v1.06H16v-1.06zM16 26.39h-1.07v1.07H16v-1.07zM17.07 25.32H16v1.07h1.07v-1.07zM14.93 25.32h-1.06v1.07h1.06v-1.07zM5.87 6.12H4.8V7.2h1.07V6.12zM5.87 8.26H4.8v1.06h1.07V8.26zM6.93 7.19H5.87v1.07h1.06V7.19zM4.8 7.19H3.73v1.07H4.8V7.19z"/>
    <path fill="#212121" d="M24.71 14.16c-.28-.39-.7-.64-1.18-.7-.48-.07-.96.05-1.34.35l-1.26.96-1.9 1.41-1.35-.54A6.94 6.94 0 0 0 14.83 2.4a6.96 6.96 0 0 0-6.96 6.93c0 1.39.42 2.68 1.12 3.76l-2.76-.02H6.2l-.16.03-.03.02h-.02l-3.24 1.6-1.89.9a1.78 1.78 0 0 0 .93 3.3c.3.01.58-.06.84-.2l1.4-.74 2.26-1.17h1.35L2.2 22.2.86 23.55a1.65 1.65 0 0 0 0 2.35 1.67 1.67 0 0 0 2.36 0l1.31-1.3 1.74-1.3.9.89-1.76 1.75-1.34 1.34a1.65 1.65 0 0 0 0 2.36 1.67 1.67 0 0 0 2.36 0l3.48-3.47 1.01-1 .02-.02 5.17-5.66 3.47.5h.07c.07 0 .13-.02.2-.04l.04-.02.06-.03 3.21-2.13.03-.03.04-.03 1.27-1.19c.67-.62.76-1.63.22-2.36zM2.14 17.77a.71.71 0 0 1-.56.05.72.72 0 0 1-.21-1.26l1.31-.63.45 1.31-.99.53zm3.5-1.83-1.55.8-.44-1.28 2.03-1-.04 1.48zm15.1-6.62c0 .92-.22 1.79-.6 2.56l-4.18-1.9a1.86 1.86 0 0 0-.8-1.39l1.47-4.86a5.88 5.88 0 0 1 4.1 5.6zm-11.8 0a5.89 5.89 0 0 1 6.65-5.81l-1.44 4.75h-.05a1.87 1.87 0 1 0 0 3.73c.7 0 1.3-.38 1.62-.95l3.86 1.76A5.9 5.9 0 0 1 8.94 9.32zm5.96.8a.8.8 0 0 1-1.6 0 .8.8 0 0 1 1.6 0zM2.46 25.15a.6.6 0 0 1-.85 0 .6.6 0 0 1 0-.85l.96-.96.85.85-.96.96zm3.22 3.73a.6.6 0 0 1-.86 0 .6.6 0 0 1 0-.84l.97-.96.85.85-.96.95zm3.48-3.47-1.77 1.76-.85-.85 1.76-1.75c.05-.04.07-.09.1-.14l.02-.04c.02-.04.02-.08.03-.13l.01-.07-.02-.1c0-.04 0-.07-.02-.1a.55.55 0 0 0-.09-.14l-.02-.04-1.61-1.6-.06-.04a.5.5 0 0 0-.09-.05.51.51 0 0 0-.09-.04.5.5 0 0 0-.1-.02.5.5 0 0 0-.1 0l-.1.03a.48.48 0 0 0-.1.04l-.06.03-1.77 1.33-.9-.9 2.4-2.39 4.36 4.3-.93.91zm6.82-7.02h-.05a.56.56 0 0 0-.3.08.5.5 0 0 0-.08.06l-.04.03-4.7 5.15-4.33-4.26 2.84-2.82a.53.53 0 0 0-.38-.9H6.72l.03-1.6 3.1.02a6.95 6.95 0 0 0 6.26 1.98c.04.03.08.07.13.09l2.41.96.15.75.18.89-3-.43zm4.04.18-.31-1.56 1.44-1.08.95 1.26-2.08 1.38zm3.75-2.83-.83.79-.94-1.24.84-.64a.73.73 0 0 1 .54-.14.72.72 0 0 1 .4 1.23z"/>
    <path fill="#212121" d="m13.6 18.54-2.14-2.13a.53.53 0 0 0-.75 0l-2.15 2.13a.54.54 0 0 0 0 .76l2.15 2.13a.54.54 0 0 0 .75 0l2.14-2.13a.54.54 0 0 0 0-.76zm-2.52 1.76L9.7 18.92l1.38-1.38 1.39 1.38-1.39 1.38zM17.16 5.07l-.25 1.04c.07.01 1.73.45 1.73 2.15h1.07c0-2.02-1.66-2.97-2.55-3.19zM19.71 9.32h-1.07v1.07h1.07V9.32z"/>
  </svg>
</svg>
