<!-- Generated by IcoMoon.io -->
<svg version="1.1" xmlns="http://www.w3.org/2000/svg" width="32" height="32" viewBox="0 0 32 32">
<title>company-1</title>
<path fill="#212121" d="M6.375 0.5l4.652 4.404-8.634-0.005v21.365h22.568v-8.169l4.646 4.399v-21.993h-23.232zM24.757 17.578l-13.189-12.486h13.189v12.486zM20.662 23.138h-14.698v-14.369h1.039v13.396h13.659v0.973zM9.435 29.108l-0.543 1.118-0.543-1.118h-0.455l0.792 1.491v0.869h0.412v-0.869l0.791-1.491h-0.454zM10.117 31.467l0.191-0.549h0.914l0.193 0.549h0.428l-0.893-2.359h-0.368l-0.891 2.359h0.426zM10.765 29.609l0.342 0.979h-0.684l0.342-0.979zM12.927 30.531c-0.059 0.091-0.089 0.191-0.089 0.3 0 0.199 0.070 0.36 0.209 0.485 0.14 0.123 0.327 0.185 0.561 0.185s0.434-0.063 0.603-0.19l0.133 0.157h0.457l-0.347-0.41c0.136-0.186 0.204-0.424 0.204-0.715h-0.342c0 0.159-0.033 0.303-0.099 0.433l-0.455-0.538 0.16-0.117c0.113-0.082 0.195-0.164 0.245-0.246s0.075-0.174 0.075-0.272c0-0.149-0.055-0.274-0.165-0.375-0.109-0.102-0.25-0.152-0.421-0.152-0.19 0-0.341 0.054-0.454 0.162-0.112 0.107-0.169 0.253-0.169 0.438 0 0.076 0.018 0.154 0.053 0.235 0.037 0.081 0.101 0.179 0.193 0.295-0.175 0.125-0.292 0.234-0.352 0.326zM13.992 31.053c-0.116 0.089-0.24 0.133-0.373 0.133-0.118 0-0.212-0.034-0.282-0.102s-0.105-0.157-0.105-0.266c0-0.127 0.065-0.239 0.194-0.337l0.050-0.036 0.515 0.608zM13.569 30.007c-0.111-0.137-0.167-0.251-0.167-0.342 0-0.079 0.023-0.144 0.068-0.196s0.106-0.078 0.183-0.078c0.071 0 0.13 0.022 0.177 0.066 0.046 0.043 0.070 0.096 0.070 0.157 0 0.093-0.034 0.169-0.101 0.229l-0.050 0.041-0.18 0.123zM17.409 31.289c0.162-0.142 0.255-0.338 0.279-0.59h-0.408c-0.022 0.169-0.073 0.289-0.154 0.361s-0.202 0.109-0.363 0.109c-0.176 0-0.31-0.067-0.402-0.201-0.091-0.134-0.136-0.328-0.136-0.583v-0.209c0.002-0.252 0.051-0.442 0.146-0.572 0.096-0.131 0.233-0.196 0.412-0.196 0.153 0 0.27 0.038 0.348 0.113 0.080 0.075 0.13 0.197 0.149 0.366h0.408c-0.026-0.258-0.118-0.458-0.277-0.6s-0.368-0.212-0.629-0.212c-0.193 0-0.364 0.046-0.512 0.138-0.147 0.092-0.26 0.223-0.339 0.392s-0.118 0.366-0.118 0.588v0.22c0.003 0.217 0.044 0.408 0.121 0.572s0.188 0.291 0.331 0.381c0.144 0.089 0.309 0.133 0.497 0.133 0.269 0 0.485-0.070 0.647-0.211zM19.819 30.959c0.080-0.175 0.12-0.378 0.12-0.609v-0.131c-0.001-0.23-0.042-0.431-0.123-0.604-0.081-0.174-0.196-0.307-0.345-0.399-0.148-0.093-0.318-0.139-0.51-0.139s-0.363 0.047-0.512 0.141c-0.148 0.093-0.263 0.227-0.345 0.404-0.081 0.176-0.122 0.379-0.122 0.609v0.133c0.001 0.226 0.042 0.425 0.123 0.598 0.082 0.173 0.198 0.306 0.347 0.4 0.15 0.093 0.321 0.139 0.512 0.139 0.193 0 0.364-0.046 0.512-0.139 0.149-0.094 0.264-0.228 0.344-0.402zM19.38 29.625c0.099 0.139 0.149 0.34 0.149 0.601v0.123c0 0.266-0.049 0.468-0.148 0.606-0.097 0.138-0.237 0.207-0.418 0.207-0.179 0-0.32-0.071-0.421-0.212-0.101-0.142-0.151-0.342-0.151-0.601v-0.136c0.002-0.254 0.053-0.45 0.152-0.588 0.101-0.139 0.239-0.209 0.417-0.209 0.181 0 0.321 0.070 0.42 0.209z"></path>
</svg>
