<!-- Generated by IcoMoon.io -->
<svg version="1.1" xmlns="http://www.w3.org/2000/svg" width="33" height="32" viewBox="0 0 33 32">
<title>company-4</title>
<path fill="#212121" d="M6.505 12.366h-0.001c-1.102 0-1.995 0.794-1.995 1.773v0.001c0 0.979 0.893 1.773 1.995 1.773h0.001c1.102 0 1.995-0.794 1.995-1.773v-0.001c0-0.979-0.893-1.773-1.995-1.773z"></path>
<path fill="#212121" d="M21.231 11.799c-0.003-1.36-0.612-2.664-1.694-3.625s-2.549-1.504-4.079-1.507v0c-1.531 0.003-2.998 0.544-4.081 1.506s-1.692 2.266-1.695 3.626v0 7.5c0 0 11.548-1.143 11.55-7.499v-0.001z"></path>
<path fill="#212121" d="M0.464 21.761c0.003 0.946 0.427 1.853 1.18 2.523s1.773 1.047 2.838 1.049v0c1.065-0.003 2.085-0.38 2.837-1.049s1.177-1.576 1.18-2.522v0-5.219c0 0-8.036 0.796-8.036 5.218zM4.482 22.696c-0.208 0-0.412-0.055-0.585-0.158s-0.308-0.249-0.388-0.42c-0.080-0.171-0.1-0.359-0.060-0.54s0.141-0.348 0.288-0.479 0.335-0.22 0.539-0.256c0.204-0.036 0.416-0.018 0.608 0.053s0.357 0.191 0.472 0.344 0.177 0.334 0.177 0.519c0 0.123-0.026 0.245-0.079 0.359s-0.13 0.217-0.228 0.305c-0.098 0.087-0.214 0.156-0.342 0.204s-0.265 0.072-0.404 0.072v-0.004z"></path>
<path fill="#212121" d="M12.603 22.181h-0.775v0.801h-0.404v-1.96h1.276v0.327h-0.872v0.506h0.775v0.326zM14.544 22.046c0 0.193-0.034 0.362-0.102 0.508s-0.166 0.258-0.293 0.337c-0.126 0.079-0.272 0.118-0.436 0.118-0.162 0-0.307-0.039-0.435-0.117s-0.226-0.189-0.296-0.334c-0.070-0.145-0.105-0.312-0.106-0.501v-0.097c0-0.193 0.035-0.363 0.104-0.509s0.168-0.26 0.295-0.338c0.127-0.079 0.273-0.118 0.436-0.118s0.308 0.039 0.435 0.118c0.127 0.078 0.226 0.191 0.295 0.338 0.070 0.146 0.105 0.315 0.105 0.507v0.088zM14.135 21.958c0-0.206-0.037-0.362-0.11-0.468s-0.179-0.16-0.315-0.16c-0.136 0-0.24 0.053-0.314 0.159s-0.111 0.259-0.112 0.463v0.096c0 0.2 0.037 0.355 0.11 0.466s0.179 0.166 0.318 0.166c0.136 0 0.24-0.053 0.312-0.159s0.109-0.262 0.11-0.466v-0.096zM15.854 22.468c0-0.076-0.027-0.135-0.081-0.175s-0.151-0.084-0.291-0.129c-0.14-0.046-0.251-0.091-0.333-0.135-0.223-0.12-0.334-0.282-0.334-0.486 0-0.106 0.030-0.2 0.089-0.283s0.146-0.148 0.257-0.195c0.112-0.047 0.238-0.070 0.377-0.070s0.265 0.026 0.374 0.077c0.109 0.050 0.194 0.122 0.254 0.214s0.092 0.197 0.092 0.315h-0.404c0-0.090-0.028-0.159-0.085-0.209s-0.136-0.075-0.238-0.075c-0.099 0-0.175 0.021-0.23 0.063s-0.082 0.096-0.082 0.164c0 0.064 0.032 0.117 0.096 0.16s0.159 0.084 0.284 0.121c0.23 0.069 0.397 0.155 0.502 0.257s0.157 0.23 0.157 0.382c0 0.17-0.064 0.303-0.193 0.4s-0.301 0.144-0.518 0.144c-0.151 0-0.288-0.027-0.412-0.082s-0.219-0.131-0.284-0.227c-0.065-0.096-0.097-0.207-0.097-0.334h0.405c0 0.216 0.129 0.324 0.388 0.324 0.096 0 0.171-0.019 0.225-0.058s0.081-0.094 0.081-0.164zM18.009 21.349h-0.6v1.633h-0.404v-1.633h-0.592v-0.327h1.597v0.327zM19.42 22.133h-0.775v0.525h0.91v0.324h-1.314v-1.96h1.311v0.327h-0.907v0.467h0.775v0.316zM20.517 22.265h-0.322v0.718h-0.404v-1.96h0.728c0.232 0 0.41 0.052 0.536 0.155s0.188 0.249 0.188 0.437c0 0.134-0.029 0.245-0.087 0.335s-0.145 0.16-0.262 0.213l0.424 0.801v0.019h-0.433l-0.367-0.718zM20.195 21.937h0.326c0.101 0 0.18-0.026 0.236-0.077 0.056-0.052 0.083-0.123 0.083-0.214 0-0.092-0.026-0.165-0.079-0.218s-0.132-0.079-0.241-0.079h-0.324v0.588zM22.642 22.291v0.691h-0.404v-1.96h0.765c0.147 0 0.276 0.027 0.388 0.081s0.198 0.131 0.258 0.23c0.060 0.099 0.090 0.211 0.090 0.338 0 0.192-0.066 0.344-0.198 0.455s-0.313 0.166-0.545 0.166h-0.354zM22.642 21.964h0.361c0.107 0 0.188-0.025 0.244-0.075s0.085-0.122 0.085-0.215c0-0.096-0.028-0.174-0.085-0.233s-0.135-0.090-0.234-0.092h-0.37v0.615zM25.197 22.133h-0.775v0.525h0.91v0.324h-1.314v-1.96h1.311v0.327h-0.907v0.467h0.775v0.316zM27.071 21.349h-0.6v1.633h-0.404v-1.633h-0.592v-0.327h1.597v0.327zM28.482 22.133h-0.775v0.525h0.91v0.324h-1.314v-1.96h1.311v0.327h-0.907v0.467h0.775v0.316zM29.579 22.265h-0.322v0.718h-0.404v-1.96h0.728c0.232 0 0.41 0.052 0.536 0.155s0.189 0.249 0.189 0.437c0 0.134-0.029 0.245-0.087 0.335s-0.145 0.16-0.262 0.213l0.424 0.801v0.019h-0.433l-0.367-0.718zM29.257 21.937h0.326c0.101 0 0.18-0.026 0.236-0.077 0.056-0.052 0.084-0.123 0.084-0.214 0-0.092-0.026-0.165-0.079-0.218s-0.132-0.079-0.241-0.079h-0.324v0.588zM31.631 22.468c0-0.076-0.027-0.135-0.081-0.175s-0.151-0.084-0.291-0.129c-0.14-0.046-0.251-0.091-0.332-0.135-0.223-0.12-0.334-0.282-0.334-0.486 0-0.106 0.030-0.2 0.089-0.283s0.146-0.148 0.257-0.195c0.112-0.047 0.238-0.070 0.377-0.070s0.265 0.026 0.374 0.077c0.109 0.050 0.194 0.122 0.254 0.214s0.092 0.197 0.092 0.315h-0.404c0-0.090-0.028-0.159-0.085-0.209s-0.136-0.075-0.238-0.075c-0.099 0-0.175 0.021-0.23 0.063s-0.082 0.096-0.082 0.164c0 0.064 0.032 0.117 0.096 0.16s0.159 0.084 0.284 0.121c0.23 0.069 0.397 0.155 0.502 0.257s0.157 0.23 0.157 0.382c0 0.17-0.064 0.303-0.192 0.4s-0.301 0.144-0.518 0.144c-0.151 0-0.288-0.027-0.412-0.082s-0.218-0.131-0.284-0.227c-0.065-0.096-0.097-0.207-0.097-0.334h0.405c0 0.216 0.129 0.324 0.388 0.324 0.096 0 0.171-0.019 0.225-0.058s0.081-0.094 0.081-0.164z"></path>
</svg>
